<?xml version="1.0" encoding="utf-8"?>
<!-- Generator: Adobe Illustrator 26.0.2, SVG Export Plug-In . SVG Version: 6.00 Build 0)  -->
<svg version="1.1" id="Layer_1" xmlns="http://www.w3.org/2000/svg" xmlns:xlink="http://www.w3.org/1999/xlink" x="0px" y="0px"
	 width="20px" height="20px" viewBox="0 0 20 20" enable-background="new 0 0 20 20" xml:space="preserve">
<rect y="0" display="none" fill="none" width="20" height="20"/>
<path display="none" fill="#FFFFFF" stroke="#FFFFFF" stroke-linejoin="round" d="M9.5,2.5L7,6.5l-1.5-2
	c-0.5548,0.9753-2.6964,3.2924-2.6964,5.8036C2.8036,14.002,5.8017,17,9.5,17s6.6964-2.998,6.6964-6.6964
	c0-2.5112-2.1416-4.8283-2.6964-5.8036l-1.5,2L9.5,2.5z M9.5,9c0,0,2.5,2.5618,2.5,4.5c0,0.8371-0.8259,2-2.5,2S7,14.3371,7,13.5
	C7,11.6283,9.5,9,9.5,9z"/>
<path display="none" fill="#FF2200" d="M9.5,2.5L7,6.5l-1.5-2c-0.5548,0.9753-2.6964,3.2924-2.6964,5.8036
	C2.8036,14.002,5.8017,17,9.5,17s6.6964-2.998,6.6964-6.6964c0-2.5112-2.1416-4.8283-2.6964-5.8036l-1.5,2L9.5,2.5z M9.5,9
	c0,0,2.5,2.5618,2.5,4.5c0,0.8371-0.8259,2-2.5,2S7,14.3371,7,13.5C7,11.6283,9.5,9,9.5,9z"/>
<g display="none">
	<path display="inline" d="M8.9926,18.0528v-7.4384H7V2.5h7.0543l-2.7486,4.9302h3.6052L8.9926,18.0528z"/>
	<path display="inline" fill="#FFFFFF" d="M14.0543,2.5h0.005 M14.0543,2.5l-2.7486,4.9302h3.6052L8.9926,18.0528v-7.4384H7V2.5
		H14.0543 M14.0593,1h-0.005H7C6.1716,1,5.5,1.6716,5.5,2.5v8.1144c0,0.8284,0.6716,1.5,1.5,1.5h0.4926v5.9384
		c0,0.6832,0.4616,1.2801,1.1229,1.4518c0.1255,0.0326,0.2522,0.0483,0.3773,0.0483c0.5343,0,1.0408-0.2865,1.3102-0.7701
		l5.9183-10.6226c0.2588-0.4646,0.2523-1.0315-0.0171-1.49c-0.2694-0.4585-0.7615-0.7401-1.2933-0.7401h-1.0516l1.4702-2.637
		c0.144-0.2301,0.2274-0.502,0.2274-0.7932C15.5568,1.6716,14.8877,1,14.0593,1L14.0593,1z M14.0543,4h0.005H14.0543L14.0543,4z"/>
</g>
<g display="none">
	<path display="inline" fill="#FFF800" d="M16.173,7.8547h-4.8298l2.2868-6.282c0,0,0.0331-0.0963,0.0331-0.2399
		c-0.0012-0.4089-0.3319-0.7404-0.7393-0.7404c-0.2276,0-0.4312,0.1048-0.5671,0.2658L3.2279,10.9689
		c-0.0968,0.1085-0.1399,0.2741-0.1399,0.4372c0,0.408,0.3311,0.739,0.7392,0.739h4.8298L6.37,18.4275
		c0,0-0.0331,0.0965-0.0331,0.2399c0.0011,0.4088,0.3319,0.7397,0.7395,0.7397c0.2273,0,0.4311-0.1046,0.5671-0.2656l9.1283-10.1103
		c0.0969-0.1085,0.1402-0.2744,0.1402-0.4375c0-0.4077-0.331-0.739-0.7392-0.739"/>
	<path display="inline" d="M7.0763,20c-0.7324,0-1.3294-0.597-1.3317-1.3317c0-0.2256,0.0497-0.3887,0.0654-0.4327l2.001-5.4979
		H3.827c-0.7341,0-1.3311-0.597-1.3311-1.3317c0-0.3257,0.1024-0.6207,0.2887-0.8307l9.1326-10.1137
		C12.1578,0.1741,12.5291,0,12.9237,0c0.7324,0,1.3294,0.597,1.3317,1.3311c0,0.2273-0.0509,0.3916-0.0659,0.4362l-2.0004,5.495
		h3.9835c0.7347,0,1.3317,0.597,1.3317,1.3311c0,0.3274-0.103,0.623-0.2904,0.8324L8.0829,19.5384
		C7.8399,19.8265,7.4685,20,7.0763,20z M12.9237,1.1847c-0.0613,0-0.0995,0.0382-0.1134,0.0544l-9.143,10.1264
		c0.0133,0.1215,0.0787,0.1874,0.1597,0.1874h5.6767l-2.5772,7.0772c0.0052,0.2071,0.2314,0.1689,0.2644,0.1284l9.1412-10.1241
		c-0.0127-0.1221-0.0787-0.1874-0.1597-0.1874h-5.6749l2.5754-7.0766C13.0706,1.2518,13.0047,1.1847,12.9237,1.1847z"/>
</g>
<g display="none">
	<path display="inline" fill="#FFFFFF" d="M14.5689,5.9146c-0.1383-0.2372-0.4348-0.3162-0.672-0.1779l-3.459,1.9765V4.9659
		l1.8185-1.0476c0.0197,0.0593,0.0989,0.0989,0.1779,0.0989h0.0197v0.1186h-0.0197c-0.0989,0-0.1779,0.079-0.1779,0.1582
		c0,0.079,0.079,0.1582,0.1779,0.1582h0.0197v0.1186h-0.0197c-0.0989,0-0.1779,0.079-0.1779,0.1582
		c0,0.079,0.079,0.1582,0.1779,0.1582h0.0197v0.1186h-0.0197c-0.0989,0-0.1779,0.079-0.1779,0.1582
		c0,0.0989,0.079,0.1582,0.1779,0.1582h0.0197v0.0197c0,0.0593,0.0593,0.0989,0.1186,0.0989s0.1186-0.0396,0.1186-0.0989
		l-0.0002,0.0192h0.0197c0.0989,0,0.1779-0.079,0.1779-0.1582c0-0.0989-0.079-0.1582-0.1779-0.1582h-0.0197V4.9262h0.0197
		c0.0989,0,0.1779-0.079,0.1779-0.1582c0-0.079-0.079-0.1582-0.1779-0.1582h-0.0197V4.4912h0.0197
		c0.0989,0,0.1779-0.079,0.1779-0.1582c0-0.079-0.079-0.1582-0.1779-0.1582h-0.0197V4.0562h0.0197
		c0.0989,0,0.1779-0.079,0.1779-0.1582c0-0.0989-0.079-0.1582-0.1779-0.1582h-0.0197V3.7201l0.2766-0.1582
		c0.2372-0.1383,0.3162-0.4348,0.1779-0.672c-0.1383-0.2372-0.4348-0.3162-0.672-0.1779l-2.0357,1.1274V1.7639
		c0-0.3952-0.3162-0.7116-0.7116-0.7116H9.7066c-0.3952,0-0.7116,0.3162-0.7116,0.7116v2.8858L6.1289,6.31
		c-0.2372,0.1383-0.3162,0.4348-0.1779,0.672c0.0989,0.1582,0.2569,0.2372,0.4348,0.2372c0.079,0,0.1779-0.0197,0.2372-0.0593
		l0.1582-0.0989c0.0197,0.0593,0.0989,0.1186,0.1779,0.1186h0.0197v0.1186H6.9591c-0.0989,0-0.1779,0.079-0.1779,0.1582
		c0,0.079,0.079,0.1582,0.1779,0.1582h0.0197v0.1186H6.9591c-0.0989,0-0.1779,0.079-0.1779,0.1582
		c0,0.079,0.079,0.1582,0.1779,0.1582h0.0197v0.1186H6.9591c-0.0989,0-0.1779,0.079-0.1779,0.1582
		c0,0.0989,0.079,0.1582,0.1779,0.1582h0.0197v0.0197c0,0.0593,0.0593,0.0989,0.1186,0.0989S7.216,8.5637,7.216,8.5044
		l0.0002,0.0194h0.0197c0.0989,0,0.1779-0.079,0.1779-0.1582c0-0.0989-0.079-0.1582-0.1779-0.1582H7.2162V8.0888h0.0197
		c0.0989,0,0.1779-0.079,0.1779-0.1582c0-0.079-0.079-0.1582-0.1779-0.1582H7.2162V7.6538h0.0197
		c0.0989,0,0.1779-0.079,0.1779-0.1582c0-0.079-0.079-0.1582-0.1779-0.1582H7.2162V7.2188h0.0197
		c0.0989,0,0.1779-0.079,0.1779-0.1582c0-0.0989-0.079-0.1582-0.1779-0.1582H7.2162V6.8827l1.7986-1.0279v2.7475l-3.5183,1.9573
		c-0.2372,0.1383-0.3162,0.4348-0.1779,0.672c0.079,0.1777,0.2569,0.2569,0.4348,0.2569c0.079,0,0.1779-0.0197,0.2372-0.0593
		l0.1779-0.0989c0.0396,0.0593,0.0989,0.079,0.1582,0.079h0.0197v0.1186H6.3268c-0.0989,0-0.1779,0.079-0.1779,0.1582
		c0,0.079,0.079,0.1582,0.1779,0.1582h0.0197v0.1186H6.3268c-0.0989,0-0.1779,0.079-0.1779,0.1582
		c0,0.079,0.079,0.1582,0.1779,0.1582h0.0197v0.1186H6.3268c-0.0989,0-0.1779,0.079-0.1779,0.1582
		c0,0.0989,0.079,0.1582,0.1779,0.1582h0.0197v0.0197c0,0.0593,0.0593,0.0989,0.1186,0.0989s0.1186-0.0396,0.1186-0.0989v-0.0197
		h0.0197c0.0989,0,0.1779-0.079,0.1779-0.1582c0-0.0989-0.079-0.1582-0.1779-0.1582H6.5837v-0.1186h0.0197
		c0.0989,0,0.1779-0.079,0.1779-0.1582c0-0.079-0.079-0.1582-0.1779-0.1582H6.5837v-0.1186h0.0197
		c0.0989,0,0.1779-0.079,0.1779-0.1582c0-0.079-0.079-0.1582-0.1779-0.1582H6.5837v-0.1186h0.0197
		c0.0989,0,0.1779-0.079,0.1779-0.1582c0-0.0989-0.079-0.1582-0.1779-0.1582H6.5837l2.4311-1.4034c0,0-0.0197,7.4554,0,7.6531
		c0.0197,0.1976,0.6325,0.1779,0.9487,0.0396c0.4744-0.2175,0.4941-0.3952,0.4941-0.3952V8.8595L13.64,7.0212
		c0.0396,0.0396,0.0989,0.079,0.1582,0.079h-0.0002v0.1186h-0.0197c-0.0989,0-0.1779,0.079-0.1779,0.1582
		c0,0.079,0.079,0.1582,0.1779,0.1582h0.0197v0.1186h-0.0197c-0.0989,0-0.1779,0.079-0.1779,0.1582
		c0,0.079,0.079,0.1582,0.1779,0.1582l0.0197-0.0002v0.158h-0.0197c-0.0989,0-0.1779,0.079-0.1779,0.1582
		c0,0.0989,0.079,0.1582,0.1779,0.1582l0.0197-0.0002v0.0197c0,0.0593,0.0593,0.0989,0.1186,0.0989s0.1186-0.0396,0.1186-0.0989
		V8.4444h0.0197c0.0989,0,0.1779-0.079,0.1779-0.1582c0-0.0989-0.079-0.1582-0.1779-0.1582h-0.0197V8.0094h0.0197
		c0.0989,0,0.1779-0.079,0.1779-0.1582c0-0.079-0.079-0.1582-0.1779-0.1582h-0.0197V7.5744h0.0197
		c0.0989,0,0.1779-0.079,0.1779-0.1582c0-0.079-0.079-0.1582-0.1779-0.1582h-0.0197V7.1394h0.0197
		c0.0989,0,0.1779-0.079,0.1779-0.1582c0-0.0989-0.079-0.1582-0.1779-0.1582h-0.0197l0.3558-0.1976
		c0.2372-0.1773,0.3162-0.4935,0.1779-0.711L14.5689,5.9146z"/>
	<path display="inline" d="M9.7263,1.0522c0.3954,0,0.7116,0.3164,0.7116,0.7116v2.0755l2.0357-1.1274
		c0.0791-0.0461,0.1647-0.0681,0.2489-0.0681c0.1684,0,0.3309,0.0878,0.4231,0.246c0.1383,0.2372,0.0593,0.5337-0.1779,0.672
		l-0.2766,0.1582v0.0197h0.0197c0.0989,0,0.1779,0.0593,0.1779,0.1582c0,0.0792-0.079,0.1582-0.1779,0.1582h-0.0197v0.1186h0.0197
		c0.0989,0,0.1779,0.0792,0.1779,0.1582c0,0.0792-0.079,0.1582-0.1779,0.1582h-0.0197v0.1186h0.0197
		c0.0989,0,0.1779,0.0792,0.1779,0.1582c0,0.0792-0.079,0.1582-0.1779,0.1582h-0.0197v0.1186h0.0197
		c0.0989,0,0.1779,0.0593,0.1779,0.1582c0,0.0792-0.079,0.1582-0.1779,0.1582h-0.0197l0.0001-0.0178c0-0.0005,0-0.001,0-0.0014
		l0,0.0014c-0.001,0.0585-0.0598,0.0974-0.1186,0.0974c-0.0593,0-0.1186-0.0396-0.1186-0.0989V5.3222h-0.0197
		c-0.0989,0-0.1779-0.0593-0.1779-0.1582c0-0.0792,0.079-0.1582,0.1779-0.1582h0.0197V4.8872h-0.0197
		c-0.0989,0-0.1779-0.0792-0.1779-0.1582c0-0.0792,0.079-0.1582,0.1779-0.1582h0.0197V4.4522h-0.0197
		c-0.0989,0-0.1779-0.0792-0.1779-0.1582c0-0.0792,0.079-0.1582,0.1779-0.1582h0.0197V4.0172h-0.0197
		c-0.079,0-0.1582-0.0396-0.1779-0.0989l-1.8185,1.0476v2.7473l3.459-1.9766c0.0791-0.0461,0.1647-0.0681,0.2489-0.0681
		c0.1684,0,0.3309,0.0878,0.4231,0.246l0.0001-0.0003c0.1383,0.2175,0.0593,0.5338-0.1779,0.711L14.0353,6.823h0.0197
		c0.0989,0,0.1779,0.0593,0.1779,0.1582c0,0.0792-0.079,0.1582-0.1779,0.1582h-0.0197V7.258h0.0197
		c0.0989,0,0.1779,0.0792,0.1779,0.1582c0,0.0792-0.079,0.1582-0.1779,0.1582h-0.0197V7.693h0.0197
		c0.0989,0,0.1779,0.0792,0.1779,0.1582c0,0.0792-0.079,0.1582-0.1779,0.1582h-0.0197V8.128h0.0197
		c0.0989,0,0.1779,0.0593,0.1779,0.1582c0,0.0792-0.079,0.1582-0.1779,0.1582h-0.0197v0.0197c0,0.0593-0.0593,0.0989-0.1186,0.0989
		c-0.0593,0-0.1186-0.0396-0.1186-0.0989V8.4444l-0.0197,0.0002c-0.0989,0-0.1779-0.0593-0.1779-0.1582
		c0-0.0792,0.079-0.1582,0.1779-0.1582h0.0197v-0.158l-0.0197,0.0002c-0.0989,0-0.1779-0.0792-0.1779-0.1582
		c0-0.0792,0.079-0.1582,0.1779-0.1582h0.0197V7.5353h-0.0197c-0.0989,0-0.1779-0.0792-0.1779-0.1582
		c0-0.0792,0.079-0.1582,0.1779-0.1582h0.0197V7.1003h0.0002c-0.0593,0-0.1186-0.0394-0.1582-0.079l-3.1824,1.8383v8.1276
		c0,0-0.0197,0.1777-0.4941,0.3953c-0.1534,0.0671-0.3766,0.1063-0.5681,0.1063c-0.2031,0-0.3705-0.0441-0.3806-0.1459
		c-0.0197-0.1977,0-7.6531,0-7.6531L6.5837,11.093h0.0197c0.0989,0,0.1779,0.0593,0.1779,0.1582
		c0,0.0792-0.079,0.1582-0.1779,0.1582H6.5837v0.1186h0.0197c0.0989,0,0.1779,0.0792,0.1779,0.1582
		c0,0.0792-0.079,0.1582-0.1779,0.1582H6.5837v0.1186h0.0197c0.0989,0,0.1779,0.0792,0.1779,0.1582
		c0,0.0792-0.079,0.1582-0.1779,0.1582H6.5837v0.1186h0.0197c0.0989,0,0.1779,0.0593,0.1779,0.1582
		c0,0.0792-0.079,0.1582-0.1779,0.1582H6.5837v0.0197c0,0.0593-0.0593,0.0989-0.1186,0.0989c-0.0593,0-0.1186-0.0396-0.1186-0.0989
		v-0.0197H6.3268c-0.0989,0-0.1779-0.0593-0.1779-0.1582c0-0.0792,0.079-0.1582,0.1779-0.1582h0.0197v-0.1186H6.3268
		c-0.0989,0-0.1779-0.0792-0.1779-0.1582c0-0.0792,0.079-0.1582,0.1779-0.1582h0.0197v-0.1186H6.3268
		c-0.0989,0-0.1779-0.0792-0.1779-0.1582c0-0.0792,0.079-0.1582,0.1779-0.1582h0.0197v-0.1186H6.3268
		c-0.0593,0-0.1186-0.0197-0.1582-0.079l-0.1779,0.0989c-0.0593,0.0396-0.1582,0.0593-0.2372,0.0593
		c-0.1779,0-0.3558-0.0792-0.4348-0.2569c-0.1383-0.2372-0.0593-0.5337,0.1779-0.672l3.5183-1.9573V5.8548L7.2162,6.8827v0.0197
		h0.0197c0.0989,0,0.1779,0.0593,0.1779,0.1582c0,0.0792-0.079,0.1582-0.1779,0.1582H7.2162v0.1186h0.0197
		c0.0989,0,0.1779,0.0792,0.1779,0.1582c0,0.0792-0.079,0.1582-0.1779,0.1582H7.2162v0.1186h0.0197
		c0.0989,0,0.1779,0.0792,0.1779,0.1582c0,0.0792-0.079,0.1582-0.1779,0.1582H7.2162v0.1186h0.0197
		c0.0989,0,0.1779,0.0593,0.1779,0.1582c0,0.0792-0.079,0.1582-0.1779,0.1582H7.2162L7.216,8.5044
		c0,0.0593-0.0593,0.0989-0.1186,0.0989c-0.0593,0-0.1186-0.0396-0.1186-0.0989V8.4847H6.9591
		c-0.0989,0-0.1779-0.0593-0.1779-0.1582c0-0.0792,0.079-0.1582,0.1779-0.1582h0.0197V8.0497H6.9591
		c-0.0989,0-0.1779-0.0792-0.1779-0.1582c0-0.0792,0.079-0.1582,0.1779-0.1582h0.0197V7.6147H6.9591
		c-0.0989,0-0.1779-0.0792-0.1779-0.1582c0-0.0792,0.079-0.1582,0.1779-0.1582h0.0197V7.1797H6.9591
		c-0.079,0-0.1582-0.0593-0.1779-0.1186L6.623,7.16C6.5637,7.1996,6.4648,7.2193,6.3858,7.2193c-0.1779,0-0.336-0.079-0.4348-0.2372
		C5.8126,6.7449,5.8916,6.4484,6.1289,6.31L8.995,4.6497V1.7639c0-0.3954,0.3164-0.7116,0.7116-0.7116H9.7263 M9.7263,0.0522H9.7066
		c-0.9438,0-1.7116,0.7678-1.7116,1.7116v2.3095L5.6276,5.4448C4.9143,5.8607,4.673,6.7756,5.0871,7.4858
		c0.1788,0.2866,0.4274,0.4968,0.7138,0.617C5.8012,8.1049,5.8016,8.107,5.802,8.1091C5.7884,8.1795,5.7812,8.2522,5.7812,8.3265
		c0,0.2977,0.1087,0.5659,0.2902,0.769l-1.061,0.5902c-0.3625,0.2112-0.6085,0.5331-0.7102,0.9164
		c-0.0976,0.3678-0.0517,0.7517,0.1287,1.087c0.1553,0.3155,0.4159,0.5538,0.7346,0.685c-0.0096,0.0593-0.0146,0.1201-0.0146,0.182
		c0,0.4336,0.2306,0.8044,0.5804,1.0031c0.1968,0.171,0.4543,0.2737,0.7358,0.2737c0.2986,0,0.5703-0.1155,0.7711-0.3035
		c0.3298-0.2065,0.5451-0.5656,0.5451-0.9733c0-0.0754-0.007-0.149-0.0204-0.2201c0.0134-0.0697,0.0204-0.1415,0.0204-0.2149
		c0-0.0743-0.0072-0.1471-0.0208-0.2176c0.0137-0.0704,0.0208-0.1431,0.0208-0.2174c0-0.0425-0.0023-0.0845-0.0069-0.1259
		l0.2362-0.1364c-0.0126,5.7997,0.0035,5.9617,0.0091,6.018c0.0482,0.4829,0.4374,1.0467,1.3757,1.0467
		c0.3395,0,0.6926-0.0693,0.9688-0.1901c0.8336-0.382,1.0499-0.8635,1.0873-1.2013c0.0041-0.0366,0.0061-0.0733,0.0061-0.1101
		V9.4367l1.2281-0.7094c0.0973,0.2387,0.2722,0.4357,0.4956,0.5624c0.1967,0.1708,0.4541,0.2732,0.7352,0.2732
		c0.2986,0,0.5703-0.1156,0.7712-0.3036c0.3298-0.2065,0.5451-0.5656,0.5451-0.9732c0-0.0754-0.007-0.149-0.0204-0.2201
		c0.0134-0.0697,0.0204-0.1415,0.0204-0.2149c0-0.0743-0.0072-0.1471-0.0208-0.2176c0.0137-0.0704,0.0208-0.1431,0.0208-0.2174
		c0-0.0663-0.0057-0.1313-0.0166-0.1946c0.4669-0.5097,0.5623-1.2688,0.1966-1.8438c-0.2477-0.4251-0.7406-0.7091-1.267-0.7091
		c-0.0872,0-0.1741,0.0077-0.2596,0.023c-0.0032-0.0479-0.0094-0.095-0.0183-0.1412c0.0137-0.0704,0.0208-0.1431,0.0208-0.2174
		c0-0.0743-0.0072-0.1471-0.0208-0.2176c0.002-0.0101,0.0038-0.0203,0.0055-0.0305c0.136-0.1641,0.235-0.3556,0.2907-0.5656
		c0.1021-0.3848,0.0472-0.7872-0.1546-1.1332c-0.2669-0.4578-0.76-0.7422-1.2869-0.7422c-0.2634,0-0.5236,0.0706-0.7527,0.2042
		l-0.5319,0.2945V1.7639C11.4379,0.8201,10.6701,0.0522,9.7263,0.0522L9.7263,0.0522z M11.4379,5.9901v-0.2
		c0.0316,0.0493,0.067,0.0959,0.1057,0.1396L11.4379,5.9901L11.4379,5.9901z"/>
</g>
<g display="none">
	<path display="inline" fill="#FFF800" d="M13.2743,6.694l4.8472-1.1294c0.1412-0.0235,0.2353-0.1647,0.2353-0.3058V5
		c0-0.1647-0.1412-0.3058-0.3058-0.3058h-0.6353c-0.0235,0-0.0705-0.0235-0.0705-0.0706L17.345,3.7057
		c0-0.2353-0.1647-0.4471-0.3765-0.4941c-0.2823-0.047-0.5413,0.1883-0.5413,0.4706v0.9411c0,0.0235-0.0235,0.0706-0.0705,0.0706
		h-1.4824c-0.0235,0-0.0705-0.0235-0.0705-0.0706V3.7057c0-0.2353-0.1647-0.4471-0.3765-0.4941
		c-0.2823-0.047-0.5413,0.1883-0.5413,0.4706v0.9411c0,0.0235-0.0235,0.0706-0.0705,0.0706H13.086
		c-0.1647,0-0.2823-0.1177-0.3058-0.2823l-0.2118-2.0942c-0.047-0.4-0.353-0.6824-0.7059-0.6824L8.427,1.6351
		c-0.353,0-0.6588,0.2823-0.7059,0.6824L7.5094,4.4117C7.4859,4.5764,7.3681,4.694,7.2035,4.694H6.3565
		c-0.0235,0-0.0706-0.0235-0.0706-0.0706L6.2858,3.7057c0-0.2353-0.1647-0.4471-0.3765-0.4941
		C5.627,3.1646,5.368,3.3999,5.368,3.6822v0.9411c0,0.0235-0.0235,0.0706-0.0706,0.0706L3.7916,4.694
		c-0.0235,0-0.0706-0.0235-0.0706-0.0706V3.7057c0-0.2353-0.1647-0.4471-0.3765-0.4941C3.0622,3.1881,2.8034,3.3999,2.8034,3.6822
		v0.9411c0,0.0235-0.0235,0.0706-0.0706,0.0706L2.0974,4.694c-0.1647,0-0.3058,0.1412-0.3058,0.3058v0.2588
		c0,0.1412,0.0941,0.2588,0.2353,0.3058l4.9884,1.1532c0.1412,0.0235,0.2588,0.1883,0.2353,0.3295L6.474,14.506
		c0,0.0706-0.0706,0.1412-0.1412,0.1412l-3.6237-0.0001H2.4973c-0.4,0-0.7059,0.3295-0.7059,0.7765v2.1648
		c0,0.4235,0.3058,0.7765,0.7059,0.7765h15.1299c0.4,0,0.7294-0.353,0.7294-0.8v-2.0707c0-0.4471-0.3295-0.8-0.7294-0.8h-0.0235
		v-0.0235h-3.647c-0.0705,0-0.1412-0.047-0.1412-0.1412L13.0389,7.047C13.0155,6.8587,13.1331,6.7176,13.2743,6.694L13.2743,6.694z
		 M12.239,8.2941l0.3058,2.9648c0.0235,0.1177-0.1177,0.2118-0.2118,0.1412L9.0152,9.7765c-0.1177-0.047-0.1177-0.2118,0-0.2823
		l2.9883-1.3412C12.1213,8.1294,12.2154,8.2001,12.239,8.2941L12.239,8.2941z M11.7214,3.3057l0.3295,3.0825
		c0.0235,0.1177-0.1412,0.2118-0.2353,0.1412L9.2743,4.7412c-0.0941-0.0706-0.0941-0.1883,0-0.2588l2.2118-1.2943
		C11.5802,3.1411,11.6979,3.1881,11.7214,3.3057z M8.6389,2.694c0-0.0706,0.0705-0.1412,0.1412-0.1412h1.3647
		c0.1412,0,0.2118,0.2118,0.0705,0.2823L8.7565,3.6822C8.6624,3.7527,8.5212,3.6587,8.5447,3.541L8.6389,2.694z M8.3331,5.4941
		c0.0235-0.1177,0.1412-0.1647,0.2353-0.1177l2.659,1.8824c0.0941,0.0706,0.0706,0.2118-0.0235,0.2588L8.2155,8.8588
		c-0.0941,0.047-0.2118-0.047-0.2118-0.1412L8.3331,5.4941z M7.4625,13.8473l0.3529-3.3884c0-0.0941,0.1177-0.1647,0.2118-0.1177
		l3.4824,1.7177c0.1177,0.047,0.1177,0.2118,0,0.2823l-3.8352,1.6473c-0.0942,0.047-0.2118-0.047-0.2118-0.1412L7.4625,13.8473z
		 M12.7332,14.6473H9.2507c-0.1647,0-0.2118-0.2118-0.0706-0.2823l3.3179-1.4354c0.0941-0.047,0.1883,0.0235,0.2118,0.1177
		l0.1412,1.4354c0.0234,0.0706-0.0472,0.1646-0.1177,0.1646H12.7332z"/>
	<path display="inline" d="M11.8626,1.635c0.3529,0,0.6588,0.2823,0.7059,0.6824l0.2118,2.0942
		c0.0235,0.1646,0.1411,0.2823,0.3058,0.2823h0.7294c0.047,0,0.0705-0.047,0.0705-0.0705V3.6822
		c0-0.258,0.2161-0.4766,0.4687-0.4766c0.0239,0,0.0481,0.002,0.0725,0.006c0.2118,0.047,0.3765,0.2588,0.3765,0.4941v0.9176
		c0,0.047,0.047,0.0705,0.0705,0.0705h1.4824c0.047,0,0.0706-0.047,0.0706-0.0705V3.6822c0-0.258,0.2161-0.4766,0.4687-0.4766
		c0.0239,0,0.0481,0.002,0.0725,0.006c0.2118,0.047,0.3765,0.2588,0.3765,0.4941l0.0001,0.9179c0,0.047,0.047,0.0705,0.0706,0.0705
		h0.6353c0.1646,0,0.3058,0.1411,0.3058,0.3058v0.2588c0,0.1411-0.0941,0.2823-0.2353,0.3058L13.2743,6.694v0
		c-0.1412,0.0236-0.2588,0.1647-0.2354,0.353l0.7765,7.4825c0,0.0942,0.0707,0.1412,0.1412,0.1412h3.647v0.0235h0.0235
		c0.3999,0,0.7294,0.353,0.7294,0.8v2.0707c0,0.4471-0.3293,0.8001-0.7294,0.8001H2.4973c-0.4,0-0.7059-0.353-0.7059-0.7765v-2.1648
		c0-0.447,0.3058-0.7765,0.7059-0.7765h0.2118l3.6237,0.0001c0.0707,0,0.1412-0.0707,0.1412-0.1412l0.7765-7.4589
		c0.0235-0.1412-0.0941-0.306-0.2353-0.3295L2.0268,5.5645c-0.1412-0.047-0.2353-0.1646-0.2353-0.3058V4.9998
		c0-0.1646,0.1411-0.3058,0.3058-0.3058l0.6354-0.0001c0.047,0,0.0705-0.047,0.0705-0.0705V3.6822
		c0-0.268,0.2331-0.4724,0.4983-0.4724c0.0142,0,0.0285,0.0006,0.0429,0.0018C3.5563,3.2587,3.721,3.4704,3.721,3.7057v0.9178
		c0,0.047,0.047,0.0705,0.0705,0.0705l1.5059-0.0001c0.047,0,0.0705-0.047,0.0705-0.0705V3.6822
		c0-0.2579,0.2161-0.4766,0.4688-0.4766c0.0239,0,0.0481,0.002,0.0725,0.006c0.2118,0.047,0.3765,0.2588,0.3765,0.4941
		l0.0001,0.9178c0,0.047,0.047,0.0705,0.0705,0.0705h0.8471c0.1646,0,0.2823-0.1176,0.3058-0.2823l0.2118-2.0942
		c0.047-0.4,0.3529-0.6824,0.7059-0.6824L11.8626,1.635 M8.6839,3.7065c0.0249,0,0.0501-0.0075,0.0725-0.0243l1.4589-0.8471
		c0.1412-0.0705,0.0707-0.2823-0.0705-0.2823H8.7801c-0.0707,0-0.1412,0.0707-0.1412,0.1412L8.5447,3.541
		C8.5268,3.6306,8.6044,3.7065,8.6839,3.7065 M11.8915,6.5537c0.0861,0,0.1773-0.0759,0.1594-0.1655l-0.3295-3.0825
		c-0.0174-0.0872-0.0867-0.1356-0.1597-0.1356c-0.0254,0-0.0513,0.0059-0.0756,0.018L9.2743,4.4824
		c-0.0941,0.0705-0.0941,0.1883,0,0.2588l2.5413,1.7882C11.838,6.5463,11.8645,6.5537,11.8915,6.5537 M8.1622,8.8713
		c0.018,0,0.036-0.0039,0.0533-0.0125l2.9883-1.3412c0.0941-0.047,0.1176-0.1883,0.0235-0.2588l-2.659-1.8824
		c-0.0243-0.0122-0.0502-0.018-0.0756-0.018c-0.073,0-0.1423,0.0484-0.1597,0.1357L8.0037,8.7176
		C8.0037,8.7945,8.0822,8.8713,8.1622,8.8713 M12.4056,11.4245c0.0796,0,0.1571-0.0759,0.1392-0.1655L12.239,8.2941l-0.0001,0
		c-0.0204-0.0817-0.094-0.1457-0.1902-0.1457c-0.0146,0-0.0297,0.0015-0.0452,0.0046L9.0152,9.4942
		c-0.1177,0.0705-0.1177,0.2353,0,0.2823l3.3179,1.6236C12.3555,11.417,12.3806,11.4245,12.4056,11.4245 M7.4625,13.8473l0.0001,0
		c0,0.0769,0.0784,0.1537,0.1584,0.1537c0.018,0,0.0361-0.0039,0.0533-0.0125l3.8352-1.6473c0.1177-0.0705,0.1177-0.2353,0-0.2823
		l-3.4824-1.7177c-0.0206-0.0103-0.0423-0.015-0.0637-0.015c-0.0763,0-0.148,0.0592-0.148,0.1327L7.4625,13.8473 M9.2507,14.6473
		h3.4824h0.0002c0.0705,0,0.1411-0.0941,0.1177-0.1646l-0.1412-1.4354c-0.0184-0.0735-0.0798-0.1327-0.1506-0.1327
		c-0.0199,0-0.0405,0.0047-0.0611,0.015L9.1802,14.365C9.039,14.4356,9.086,14.6473,9.2507,14.6473 M11.8626,0.635
		C11.8626,0.635,11.8625,0.635,11.8626,0.635L8.427,0.6351c-0.8636,0-1.5941,0.673-1.699,1.5656L6.6972,2.5044
		C6.5316,2.3762,6.338,2.2825,6.1262,2.2354c-0.0175-0.0039-0.035-0.0073-0.0526-0.0102C5.9939,2.2119,5.9148,2.2056,5.8368,2.2056
		c-0.3865,0-0.7662,0.1603-1.0416,0.4398C4.6931,2.7491,4.608,2.865,4.5413,2.9895C4.341,2.6146,3.9884,2.3303,3.5614,2.2354
		c-0.044-0.0098-0.0886-0.0166-0.1336-0.0203C3.4001,2.2128,3.3295,2.2098,3.3016,2.2098c-0.3828,0-0.7478,0.1426-1.0277,0.4017
		c-0.299,0.2767-0.4706,0.667-0.4706,1.0707v0.0452C1.2245,3.861,0.7916,4.3808,0.7916,4.9998v0.2588
		c0,0.5673,0.3695,1.0715,0.9194,1.2546C1.7407,6.5232,1.771,6.5317,1.8016,6.5388l4.3908,1.015L5.558,13.6472l-2.8489-0.0001
		H2.4973c-0.9566,0-1.7059,0.7803-1.7059,1.7765v2.1648c0,0.9796,0.7652,1.7765,1.7059,1.7765h15.1299
		c0.9536,0,1.7294-0.8075,1.7294-1.8001v-2.0707c0-0.898-0.635-1.6446-1.4623-1.7786c-0.092-0.0292-0.1895-0.045-0.2906-0.045
		h-2.872l-0.6373-6.141l4.2341-0.9865c0.5984-0.1206,1.0283-0.6539,1.0283-1.2844V5c0-0.619-0.4329-1.1387-1.0118-1.2725l0-0.0219
		c0-0.7025-0.4877-1.3209-1.1596-1.4702c-0.0174-0.0039-0.035-0.0073-0.0526-0.0102c-0.0796-0.0133-0.1588-0.0196-0.2368-0.0196
		c-0.3865-0.0001-0.7662,0.1603-1.0416,0.4398c-0.0962,0.0977-0.1773,0.2062-0.2421,0.3225
		c-0.2022-0.3643-0.5494-0.6395-0.9682-0.7325c-0.0174-0.0039-0.035-0.0073-0.0526-0.0102
		c-0.0796-0.0133-0.1588-0.0196-0.2368-0.0196c-0.2713,0-0.5392,0.0789-0.77,0.2227l-0.0213-0.2115
		C13.4566,1.3081,12.7262,0.635,11.8626,0.635L11.8626,0.635z M9.6389,2.6968C9.6389,2.6968,9.6389,2.6968,9.6389,2.6968
		L9.6389,2.6968L9.6389,2.6968z M9.5259,3.734C9.5259,3.734,9.5259,3.734,9.5259,3.734L9.5259,3.734L9.5259,3.734z M9.1493,7.3441
		l0.0316-0.3089l0.2548,0.1804L9.1493,7.3441L9.1493,7.3441z M11.0693,9.6684l0.2926-0.1313l0.0298,0.2891L11.0693,9.6684
		L11.0693,9.6684z M8.6083,12.499l0.0749-0.7192l0.7445,0.3672L8.6083,12.499L8.6083,12.499z"/>
</g>
<g display="none">
	<path display="inline" fill="#FFFF00" d="M7.8032,18.9943c-0.0811,0-0.1636-0.0195-0.2393-0.0615
		c-0.2163-0.1182-0.3145-0.376-0.2305-0.6084l1.103-3.0586H7.1519c-0.1724,0-0.3325-0.0889-0.4238-0.2354
		c-0.0913-0.1455-0.1011-0.3281-0.0259-0.4834l1.7334-3.5596H5.9751c-1.0649,0-2.0708-0.5132-2.6938-1.3726
		C2.6572,8.7546,2.4829,7.6379,2.814,6.6281c0.2959-0.9028,0.9688-1.6353,1.8315-2.0117c0.103-0.6812,0.4263-1.3071,0.9292-1.7896
		c0.5859-0.561,1.355-0.8706,2.1655-0.8711c0.3789,0,0.752,0.0679,1.1001,0.1987c0.7109-0.7471,1.6812-1.2139,2.7163-1.2969
		c0.1123-0.0088,0.2246-0.0132,0.3359-0.0132c1.0615,0,2.0752,0.3965,2.8555,1.1167c0.8604,0.7944,1.3535,1.9219,1.3535,3.0928
		c0,0.0244,0,0.0483-0.001,0.0728c0.6455,0.5454,1.0625,1.3208,1.1582,2.167c0.1055,0.939-0.1953,1.8818-0.8262,2.5869
		c-0.6309,0.7031-1.5322,1.106-2.4756,1.106h-2.3926l-1.2178,1.8936h1.3691c0.1904,0,0.3643,0.1084,0.4482,0.2783
		c0.084,0.1709,0.0645,0.374-0.0508,0.5254L8.2007,18.798C8.1035,18.926,7.9551,18.9943,7.8032,18.9943z M7.7476,3.7707
		C7.3896,3.7712,7.0596,3.9079,6.811,4.1564c-0.2485,0.248-0.3853,0.5781-0.3857,0.9297c0,0.0391,0.002,0.0786,0.0059,0.1196
		l0.0332,0.3711c0.0229,0.2568-0.1528,0.4893-0.4062,0.5366L5.6938,6.1813C5.1953,6.2746,4.7798,6.6096,4.582,7.0773
		C4.3848,7.5446,4.4346,8.0759,4.7153,8.4982c0.2803,0.4219,0.75,0.6738,1.2568,0.6738h7.98c0.4512,0,0.8721-0.1963,1.1582-0.5386
		c0.2891-0.3438,0.4092-0.7939,0.3301-1.2354s-0.3467-0.8218-0.7363-1.0439L14.46,6.2141c-0.1797-0.103-0.2764-0.3062-0.2451-0.5103
		l0.043-0.2764c0.1152-0.7295-0.1201-1.4844-0.6279-2.0195c-0.4492-0.4756-1.083-0.748-1.7363-0.748
		c-0.0811,0-0.1631,0.0039-0.2451,0.0127c-0.7339,0.0747-1.4038,0.4941-1.792,1.1216L9.6196,4.1755
		c-0.0742,0.1196-0.1953,0.2026-0.334,0.228C9.2554,4.4089,9.2251,4.4118,9.1948,4.4118c-0.1084,0-0.2148-0.0352-0.3027-0.1021
		L8.5352,4.0383C8.3091,3.8654,8.0298,3.7707,7.7476,3.7707z"/>
	<path display="inline" d="M11.8925,1.3444c0.9289,0,1.8283,0.349,2.5162,0.9841c0.7606,0.7022,1.1931,1.6903,1.1933,2.7256
		c0,0.1021-0.0044,0.2051-0.0129,0.3079c0,0,0,0,0,0l0,0.0002c0-0.0001,0-0.0002,0-0.0002c0.656,0.4651,1.0824,1.1881,1.1722,1.9872
		c0.0898,0.7992-0.1656,1.5988-0.7021,2.1978c-0.5355,0.5981-1.3001,0.9398-2.1026,0.9398c-0.0015,0-0.0031,0-0.0046,0h-2.6611
		l-1.8603,2.8934h2.2853l-3.9122,5.1145l1.3448-3.7289H7.1517l2.0836-4.2788H5.9751c-0.0012,0-0.0024,0-0.0036,0
		c-0.9044,0-1.7543-0.4332-2.2854-1.1655C3.1544,8.5882,3.0066,7.6444,3.289,6.7836C3.5714,5.923,4.2494,5.25,5.1124,4.9744
		C5.1419,4.2969,5.4317,3.657,5.9211,3.1877c0.4896-0.4691,1.1413-0.7313,1.8194-0.7322c0.0024,0,0.0047,0,0.007,0
		c0.4279,0,0.8495,0.1055,1.227,0.3071c0.6395-0.8141,1.5901-1.324,2.6221-1.4064C11.6955,1.3483,11.7942,1.3444,11.8925,1.3444
		 M9.431,3.5308l0.0001-0.0002L9.1948,3.9117L8.8379,3.6403c-0.3137-0.24-0.6978-0.3698-1.0926-0.3698c-0.0015,0-0.0031,0-0.0046,0
		C7.2594,3.271,6.798,3.4624,6.4576,3.8027C6.1173,4.143,5.9258,4.6044,5.9252,5.0855v0.0001c0,0.0552,0.0025,0.1097,0.0077,0.1668
		l0.0335,0.3691L5.6021,5.6898c-0.6622,0.124-1.2183,0.5718-1.4804,1.1926C3.8595,7.5031,3.926,8.214,4.299,8.7752
		c0.3722,0.5601,1,0.8967,1.6723,0.8967c0.0013,0,0.0026,0,0.0039,0h7.9767l0.0001,0c0.0013,0,0.0026,0,0.0039,0
		c0.5936,0,1.157-0.2627,1.5385-0.7177c0.3825-0.456,0.5429-1.0581,0.4381-1.6439c-0.1049-0.5858-0.4641-1.0951-0.981-1.3901V5.9201
		l-0.2428-0.1394l0.0431-0.2765c0.1395-0.8871-0.1407-1.7887-0.7584-2.4406c-0.5495-0.5798-1.3106-0.9036-2.1009-0.9036
		c-0.098,0-0.1967,0.005-0.2953,0.0151C10.7041,2.2663,9.9037,2.7673,9.431,3.5308 M11.8926,0.3444
		C11.8926,0.3444,11.8926,0.3444,11.8926,0.3444C11.8925,0.3444,11.8926,0.3444,11.8926,0.3444c-0.125,0-0.2502,0.005-0.3756,0.015
		C10.466,0.4433,9.4752,0.881,8.7065,1.5857c-0.3117-0.086-0.6348-0.1302-0.9589-0.1302C6.7994,1.4567,5.908,1.8154,5.2293,2.4656
		C4.7116,2.962,4.3582,3.589,4.2015,4.2753C3.327,4.7333,2.6512,5.52,2.3388,6.4719C1.9576,7.634,2.1587,8.9187,2.8767,9.9086
		c0.7168,0.9883,1.8737,1.5784,3.0949,1.5784H7.636l-1.3834,2.841c-0.1509,0.3099-0.1316,0.6757,0.0512,0.968
		c0.1828,0.2923,0.5032,0.4698,0.8479,0.4698h0.5732L6.863,18.1553c-0.1674,0.464,0.0287,0.9808,0.4616,1.2171
		c0.1513,0.0826,0.3158,0.1223,0.4785,0.1223c0.3029,0,0.5999-0.1376,0.7949-0.3925l3.9122-5.1145
		c0.2312-0.3022,0.2708-0.7094,0.1023-1.0505c-0.1685-0.3411-0.5161-0.557-0.8965-0.557h-0.4535l0.5744-0.8934h2.1152
		c1.0901,0,2.128-0.4639,2.8522-1.2727c0.7257-0.8104,1.0723-1.8953,0.9508-2.9765c-0.1005-0.8942-0.5136-1.7197-1.1555-2.3345
		c-0.0409-1.2559-0.587-2.4548-1.5125-3.3092C14.2144,0.7881,13.0799,0.3445,11.8926,0.3444L11.8926,0.3444L11.8926,0.3444z
		 M9.1948,4.9117c0.0605,0,0.1213-0.0055,0.1817-0.0166c0.277-0.0512,0.5196-0.2168,0.6681-0.4562l0.2364-0.3811
		c0.0001-0.0002,0.0001-0.0003,0.0003-0.0005c0.3073-0.4963,0.8374-0.8281,1.418-0.8875c0.0647-0.0066,0.1293-0.0099,0.1935-0.0099
		c0.5176,0,1.0188,0.2156,1.3751,0.5915c0.4014,0.4236,0.587,1.0208,0.4964,1.5974l-0.0433,0.2779
		c-0.0637,0.409,0.1311,0.8149,0.49,1.0211l0.2428,0.1394c0.2623,0.1498,0.4418,0.4043,0.4947,0.6994
		c0.0527,0.2947-0.0274,0.5955-0.2199,0.8249c-0.1921,0.2291-0.4735,0.3604-0.7724,0.3604l-7.9808,0
		c-0.3423,0-0.656-0.1683-0.8433-0.4501C4.9441,7.9392,4.9109,7.584,5.0429,7.2714C5.1748,6.959,5.4526,6.7352,5.7861,6.6727
		l0.3644-0.0683c0.5068-0.095,0.8583-0.5597,0.8117-1.0732L6.9288,5.1622C6.9263,5.1352,6.9252,5.1106,6.9252,5.0857
		C6.9254,4.8689,7.0105,4.664,7.1647,4.5098c0.1541-0.1541,0.3591-0.2391,0.5772-0.2394c0,0,0,0,0,0
		c0.1778,0,0.3501,0.0583,0.4885,0.1642l0.359,0.2731C8.7648,4.841,8.9778,4.9117,9.1948,4.9117L9.1948,4.9117z M9.4311,4.5307
		h0.005H9.4311L9.4311,4.5307z M15.5891,6.3619h0.005H15.5891L15.5891,6.3619z"/>
</g>
<g display="none">
	<g display="inline">
		<path fill="#FFFFFF" d="M3.5635,11.1164C1.874,11.1154,0.5,9.7409,0.5,8.0515c0-1.6899,1.375-3.0649,3.0649-3.0649
			c0.3345,0,0.6748,0.061,1.0112,0.1807c0.0547,0.0195,0.1113,0.0293,0.168,0.0293c0.085,0,0.1699-0.0215,0.2456-0.0645
			c0.126-0.0713,0.2153-0.1934,0.2441-0.3354c0.2217-1.0825,0.7417-2.0337,1.5039-2.7505c1.0098-0.9609,2.3115-1.4893,3.668-1.4893
			c1.8179,0,3.4819,0.9131,4.4536,2.4419c0.0918,0.1445,0.251,0.2319,0.4219,0.2319h0.2891c1.0547,0,2.0439,0.4097,2.7842,1.1533
			C19.0938,5.1252,19.5,6.1115,19.5,7.1603c0,2.167-1.7627,3.9297-3.9297,3.9297h-4.6401L3.5635,11.1164z"/>
		<path d="M10.406,1.0569c1.6456,0,3.1525,0.826,4.0311,2.2096c0.1835,0.2889,0.502,0.464,0.8442,0.464c0.0004,0,0.0008,0,0.0012,0
			L15.57,3.7301c1.8912,0,3.4299,1.5387,3.43,3.43c0,1.8913-1.5387,3.43-3.4299,3.43L10.9267,10.59l-7.3619,0.0263
			C2.1506,10.6163,1,9.4657,1,8.0515c0-1.4142,1.1506-2.5648,2.5648-2.5648c0.282,0,0.5578,0.0496,0.8434,0.1515
			c0.1091,0.039,0.2228,0.0582,0.3362,0.0582c0.1701,0,0.3394-0.0434,0.4909-0.1288c0.2524-0.1423,0.4308-0.387,0.4888-0.6709
			c0.2006-0.9813,0.6696-1.8408,1.3612-2.4906C7.9989,1.5361,9.1782,1.0569,10.406,1.0569 M10.406,0.0569
			c-1.494,0-2.9095,0.5767-4.0103,1.6251C5.5306,2.4946,4.9801,3.5432,4.7443,4.6964c-0.367-0.131-0.7601-0.2097-1.1795-0.2097
			C1.5988,4.4867,0,6.0857,0,8.0515c0,1.966,1.599,3.5647,3.5648,3.5647l7.3654-0.0263l4.6398,0.0001
			c2.4377,0,4.43-1.9921,4.43-4.43c-0.0001-2.4377-1.966-4.43-4.43-4.43l-0.0005,0.0003h-0.2883
			C14.2327,1.0792,12.398,0.0569,10.406,0.0569L10.406,0.0569z"/>
	</g>
	<path display="inline" fill="#FFFF00" stroke="#000000" stroke-miterlimit="10" d="M6.3507,18.8179l2.8779-6.8676
		c0.0981-0.2289-0.0655-0.4578-0.2944-0.4578H5.4679c-0.2616,0-0.4252-0.327-0.2616-0.5233l4.9052-6.0172
		c0.1963-0.2616,0.6212-0.0655,0.5886,0.2616l-0.6212,3.8262c-0.0326,0.1963,0.1308,0.3923,0.327,0.3923h4.1203
		c0.2944,0,0.4252,0.327,0.2616,0.5559l-7.8814,9.157c-0.2616,0.2942-0.7194,0-0.5559-0.327L6.3507,18.8179z"/>
</g>
<g>
	<path fill="#FFF800" d="M13.4492,19.3596c-0.2568,0-0.4727-0.1953-0.498-0.4512l-0.1377-1.4092l-3.8647,1.7129
		c-0.2192,0.0977-0.4546,0.1475-0.6978,0.1475H5.5259c-0.2725,0-0.5332-0.1162-0.7158-0.3184s-0.271-0.4736-0.2432-0.7451
		l0.9663-9.2734L2.2896,7.5602C1.9492,7.4504,1.6924,7.1052,1.6924,6.7028V6.3596c0-0.4907,0.4146-0.9053,0.9053-0.9053h0.436
		V4.6125c0-0.6138,0.5137-1.1318,1.1216-1.1318c0.0273,0,0.1514,0.0103,0.1787,0.0146c0.5425,0.1201,0.917,0.6011,0.917,1.1484
		v0.8105h0.6328l0.2729-2.7017c0.0908-0.7754,0.7065-1.3545,1.4336-1.3545l4.5552-0.0005c0.7266,0,1.3428,0.5786,1.4326,1.3462
		l0.2744,2.7104h0.4766V4.6125c0-0.6138,0.5137-1.1318,1.1211-1.1318c0.0273,0,0.1514,0.0103,0.1787,0.0146
		c0.543,0.1201,0.917,0.6011,0.917,1.1484v0.8105h0.4365c0.4902,0,0.9053,0.4146,0.9053,0.9058v0.3433
		c0,0.4111-0.2705,0.7734-0.6426,0.8789c0,0-3.0273,1.4819-3.0371,1.4863l1.0107,9.7393c0.0146,0.1406-0.0312,0.2812-0.126,0.3867
		s-0.2295,0.165-0.3711,0.165H13.4492z M6.8628,17.6203l4.0283-1.7314l-3.6626-1.8057L6.8628,17.6203z M12.498,14.1574
		l-0.3105-3.0029l-3.04,1.3643L12.498,14.1574z M7.5806,10.8078l3.0044-1.3491L7.9102,7.5656L7.5806,10.8078z M11.8301,7.5978
		l-0.3203-2.9824L9.3711,5.8679L11.8301,7.5978z M8.3091,3.8737l0.4438-0.2588h-0.416L8.3091,3.8737z"/>
	<path d="M12.1458,1.8978c0.468,0,0.8737,0.3744,0.9361,0.9049l0.2808,2.777c0.0311,0.2182,0.187,0.3744,0.4055,0.3744h0.9671
		c0.0623,0,0.0936-0.0623,0.0936-0.0935v-1.248c0-0.342,0.2866-0.632,0.6216-0.632c0.0317,0,0.0638,0.0026,0.0961,0.008
		c0.2809,0.0623,0.4993,0.3432,0.4993,0.6552v0.6086l0.0001,0.6084c0.0001,0.0622,0.0623,0.0934,0.0935,0.0934h-0.0009
		c0.0002,0,0.0007,0.0004,0.0009,0.0004h0.8425c0.2182,0,0.4055,0.1871,0.4055,0.4055v0.3432c0,0.1872-0.1247,0.3744-0.312,0.4056
		L14.018,8.6063V8.6063c-0.1873,0.0314-0.3432,0.2185-0.3122,0.4682l1.0156,9.7856h-1.2722l-0.1798-1.8288
		c-0.0244-0.0975-0.1059-0.176-0.1998-0.176c-0.0264,0-0.0537,0.0062-0.081,0.0198L8.746,18.7553
		C8.5901,18.8244,8.4216,18.86,8.2511,18.86H5.5259c-0.2751,0-0.4897-0.2381-0.4612-0.5117l0.9654-9.2738
		c0.0312-0.1873-0.1248-0.4057-0.312-0.4369L2.5043,7.1085C2.317,7.0461,2.1923,6.8903,2.1923,6.703V6.3597
		c0-0.2182,0.1871-0.4055,0.4055-0.4055l0.8426-0.0002H3.4402c0.0623,0,0.0936-0.0623,0.0936-0.0935v-1.248
		c0-0.342,0.2865-0.632,0.6215-0.632c0.0317,0,0.0639,0.0026,0.0962,0.008c0.2809,0.0623,0.4993,0.3432,0.4993,0.6552v0.6085
		l0.0001,0.6085c0,0.0624,0.0624,0.0936,0.0936,0.0936h1.1233c0.2183,0,0.3743-0.1559,0.4055-0.3744l0.2808-2.777
		c0.0624-0.5305,0.468-0.9048,0.936-0.9048L12.1458,1.8978 M7.9308,4.6447c0.0331,0,0.0664-0.0099,0.0962-0.0322l1.9345-1.1233
		c0.1873-0.0935,0.0937-0.3744-0.0936-0.3744H8.0583c-0.0937,0-0.1872,0.0937-0.1872,0.1873l-0.125,1.123
		C7.7225,4.5441,7.8253,4.6447,7.9308,4.6447 M12.1843,8.4203c0.1141,0,0.2351-0.1007,0.2112-0.2196l-0.4369-4.0875
		c-0.0231-0.1157-0.1149-0.1799-0.2118-0.1799c-0.0337,0-0.068,0.0078-0.1003,0.0239L8.7137,5.6736
		c-0.1247,0.0936-0.1247,0.2497,0,0.3432l3.3699,2.3714C12.1134,8.4104,12.1485,8.4203,12.1843,8.4203 M7.239,11.4936
		c0.0238,0,0.0478-0.0052,0.0707-0.0166l3.9626-1.7785c0.1247-0.0624,0.156-0.2496,0.0312-0.3432L7.7776,6.8591
		C7.7454,6.843,7.7111,6.8352,7.6773,6.8352c-0.0968,0-0.1887,0.0642-0.2118,0.1799l-0.4367,4.2746
		C7.0289,11.3917,7.1329,11.4936,7.239,11.4936 M12.866,14.8792c0.1055,0,0.2084-0.1007,0.1846-0.2195l-0.4055-3.9315h-0.0001
		c-0.027-0.1083-0.1245-0.1932-0.2521-0.1932c-0.0194,0-0.0395,0.002-0.0601,0.0061l-3.9626,1.7785
		c-0.1561,0.0935-0.1561,0.312,0,0.3744l4.3997,2.153C12.7996,14.8693,12.8329,14.8792,12.866,14.8792 M6.3111,18.092h0.0001
		c0,0.102,0.104,0.2038,0.2102,0.2038c0.0238,0,0.0478-0.0051,0.0707-0.0166l5.0856-2.1843c0.1561-0.0936,0.1561-0.312,0-0.3744
		l-4.6179-2.2777c-0.0273-0.0137-0.0562-0.0199-0.0845-0.0199c-0.1011,0-0.1963,0.0785-0.1963,0.1759L6.3111,18.092 M12.1458,0.8978
		C12.1458,0.8978,12.1458,0.8978,12.1458,0.8978L7.5901,0.898c-0.9798,0-1.8092,0.7686-1.9291,1.7879l-0.1162,1.149
		c-0.2228-0.4095-0.6094-0.719-1.0765-0.8227C4.4508,3.0084,4.4334,3.005,4.4158,3.0021C4.3283,2.9875,4.2413,2.9805,4.1556,2.9805
		c-0.4262,0-0.8449,0.1771-1.1492,0.486C2.7017,3.776,2.5338,4.183,2.5338,4.6125v0.3432C1.7885,4.9891,1.1923,5.6061,1.1923,6.3597
		V6.703c0,0.5863,0.3679,1.1107,0.9231,1.3279l2.8756,1.3683l-0.9209,8.8456c-0.0428,0.4118,0.0915,0.8242,0.3686,1.1316
		C4.7158,19.6837,5.1121,19.86,5.5259,19.86h2.7252c0.3121,0,0.615-0.0641,0.9002-0.1906l3.2319-1.4323l0.0709,0.7207
		c0.0503,0.5119,0.4808,0.9021,0.9952,0.9021h1.2722c0.2832,0,0.5531-0.1201,0.7427-0.3304
		c0.1896-0.2103,0.2812-0.4912,0.252-0.7729l-0.9747-9.3914l2.6896-1.3173c0.5569-0.1825,0.9566-0.7289,0.9566-1.3451V6.36
		c0-0.7536-0.5962-1.3706-1.3417-1.4041V4.6437c0-0.7804-0.5394-1.4665-1.2826-1.6314c-0.0174-0.0039-0.0349-0.0073-0.0525-0.0102
		c-0.0875-0.0146-0.1745-0.0215-0.2603-0.0215c-0.4259,0-0.8446,0.1771-1.1489,0.486c-0.0475,0.0483-0.0918,0.0989-0.1325,0.1516
		l-0.0924-0.9161C13.9551,1.6665,13.1257,0.8978,12.1458,0.8978L12.1458,0.8978z M10.295,5.9068l0.7996-0.4679l0.1191,1.1146
		L10.295,5.9068L10.295,5.9068z M8.1662,9.9968l0.156-1.527L9.582,9.3617L8.1662,9.9968L8.1662,9.9968z M10.3261,12.5378
		l1.4338-0.6435l0.1462,1.4167L10.3261,12.5378L10.3261,12.5378z M7.4487,16.823l0.2054-1.9721l2.0417,1.007L7.4487,16.823
		L7.4487,16.823z"/>
</g>
</svg>
